o box
v -1.0  1.0 -1.0
v  1.0  1.0 -1.0
v  1.0  1.0  1.0
v -1.0  1.0  1.0
v -1.0 -1.0 -1.0
v  1.0 -1.0 -1.0
v  1.0 -1.0  1.0
v -1.0 -1.0  1.0
v -1.0 -1.0  1.0
v -1.0 -1.0 -1.0
v -1.0  1.0 -1.0
v -1.0  1.0  1.0
v  1.0 -1.0  1.0
v  1.0 -1.0 -1.0
v  1.0  1.0 -1.0
v  1.0  1.0  1.0
v -1.0 -1.0 -1.0
v  1.0 -1.0 -1.0
v  1.0  1.0 -1.0
v -1.0  1.0 -1.0
v -1.0 -1.0  1.0
v  1.0 -1.0  1.0
v  1.0  1.0  1.0
v -1.0  1.0  1.0
vt 0.0 0.0
vt 1.0 0.0
vt 0.0 1.0
vt 1.0 1.0
vn  0.0  1.0  0.0
vn  0.0 -1.0  0.0
vn -1.0  0.0  0.0
vn  1.0  0.0  0.0
vn  0.0  0.0 -1.0
vn  0.0  0.0  1.0
s 1
f 4/1/1 2/4/1 1/3/1
f 3/2/1 2/4/1 4/1/1
f 7/2/2 5/4/2 6/3/2
f 8/2/2 5/4/2 7/1/2
f 12/1/3 10/4/3 9/3/3
f 11/2/3 10/4/3 12/1/3
f 15/1/4 13/4/4 14/3/4
f 16/2/4 13/4/4 15/1/4
f 20/1/5 18/4/5 17/3/5
f 19/2/5 18/4/5 20/1/5
f 23/1/6 21/4/6 22/3/6
f 24/2/6 21/4/6 23/1/6